<?xml version="1.0" encoding="UTF-8" standalone="no" ?>
<!DOCTYPE svg PUBLIC "-//W3C//DTD SVG 1.1//EN" "http://www.w3.org/Graphics/SVG/1.1/DTD/svg11.dtd">
<svg xmlns="http://www.w3.org/2000/svg" xmlns:xlink="http://www.w3.org/1999/xlink" version="1.1" width="400" height="400" viewBox="0 0 400 400" xml:space="preserve">
<desc>Created with Fabric.js 3.6.2</desc>
<defs>
</defs>
<g transform="matrix(1.64 0 0 1.64 200 200)" id="Watsapp"  >
<path style="stroke: rgb(0,0,0); stroke-width: 2.9999; stroke-dasharray: none; stroke-linecap: round; stroke-dashoffset: 0; stroke-linejoin: round; stroke-miterlimit: 10; fill: none; fill-rule: nonzero; opacity: 1;"  transform=" translate(-62.5, -62.5)" d="M 87.721 95.793 c -3.418 0.999 -6.855 1.249 -9.053 0.634 c -4.344 -1.215 -18.699 -4.971 -28.062 -13.701 c -9.363 -8.732 -16.945 -17.924 -20.047 -24.702 s -2.932 -10.799 -2.76 -12.695 c 0.172 -1.895 1.17 -10.678 7.049 -14.443 c 0 0 1.961 -1.244 2.984 -1.244 s 5.721 0 5.721 0 s 1.533 0.268 2.238 1.865 c 0.703 1.599 5.529 12.932 5.887 13.806 c 0.359 0.875 1.293 3.038 -0.207 4.976 c -1.504 1.937 -4.645 5.554 -4.645 5.554 s -1.244 1.12 -0.164 2.903 c 1.076 1.782 4.869 7.662 9.824 12.104 c 4.957 4.444 11.029 7.711 14.057 8.707 c 3.025 0.995 3.688 -0.331 4.85 -1.824 c 1.158 -1.492 4.768 -6.053 4.768 -6.053 s 1.244 -1.824 3.688 -0.705 c 2.447 1.119 14.346 6.883 14.346 6.883 s 1.451 0.249 1.533 1.865 s 1.373 12.994 -2.734 19.642 c -2.346 5.085 -15.055 24.049 -34.492 24.137 c -17.947 0.08 -33.619 -10.093 -33.619 -10.093 l -22.936 7.484 l 7.443 -22.206 c 0 0 -11.889 -16.456 -11.889 -36.187 C 1.5 28.81 28.811 1.5 62.5 1.5 s 61 27.31 61 60.999 c 0 16.654 -6.674 31.749 -17.492 42.757" stroke-linecap="round" />
</g>
</svg>